M48
; DRILL file {KiCad 8.0.7} date 2025-04-14T16:04:12-0500
; FORMAT={-:-/ absolute / metric / decimal}
; #@! TF.CreationDate,2025-04-14T16:04:12-05:00
; #@! TF.GenerationSoftware,Kicad,Pcbnew,8.0.7
; #@! TF.FileFunction,Plated,1,2,PTH
FMAT,2
METRIC
; #@! TA.AperFunction,Plated,PTH,ComponentDrill
T1C0.813
; #@! TA.AperFunction,Plated,PTH,ComponentDrill
T2C1.000
; #@! TA.AperFunction,Plated,PTH,ComponentDrill
T3C1.016
; #@! TA.AperFunction,Plated,PTH,ComponentDrill
T4C1.300
%
G90
G05
T1
X132.626Y-94.384
X132.626Y-96.384
X132.626Y-98.384
X132.626Y-100.384
X133.896Y-124.864
X133.896Y-126.864
X133.896Y-128.864
X133.896Y-130.864
X137.706Y-80.954
X137.706Y-82.954
X137.706Y-84.954
X137.706Y-86.954
X137.706Y-88.954
X137.706Y-90.954
X140.246Y-103.274
X140.246Y-105.274
X140.246Y-107.274
X140.246Y-109.274
X141.516Y-114.704
X141.516Y-116.704
X141.516Y-118.704
X141.516Y-120.704
T2
X147.796Y-80.874
X147.796Y-83.414
X147.796Y-85.954
X147.796Y-88.494
X147.796Y-91.034
X147.796Y-93.574
X147.796Y-96.114
X147.796Y-98.654
X147.796Y-101.194
X147.796Y-103.734
X147.796Y-106.274
X147.796Y-108.814
X147.796Y-111.354
X147.796Y-113.894
X147.796Y-116.434
X147.796Y-118.974
X147.796Y-121.514
X147.796Y-124.054
X147.796Y-126.594
X147.796Y-129.134
X150.336Y-80.874
X150.336Y-83.414
X150.336Y-85.954
X150.336Y-88.494
X150.336Y-91.034
X150.336Y-93.574
X150.336Y-96.114
X150.336Y-98.654
X150.336Y-101.194
X150.336Y-103.734
X150.336Y-106.274
X150.336Y-108.814
X150.336Y-111.354
X150.336Y-113.894
X150.336Y-116.434
X150.336Y-118.974
X150.336Y-121.514
X150.336Y-124.054
X150.336Y-126.594
X150.336Y-129.134
T3
X125.006Y-116.434
X127.546Y-116.434
X130.086Y-116.434
T4
X125.046Y-108.814
X130.046Y-108.814
M30
