%TF.GenerationSoftware,KiCad,Pcbnew,8.0.7*%
%TF.CreationDate,2025-04-14T16:04:07-05:00*%
%TF.ProjectId,TeXploRV2,54655870-6c6f-4525-9632-2e6b69636164,rev?*%
%TF.SameCoordinates,Original*%
%TF.FileFunction,Copper,L1,Top*%
%TF.FilePolarity,Positive*%
%FSLAX46Y46*%
G04 Gerber Fmt 4.6, Leading zero omitted, Abs format (unit mm)*
G04 Created by KiCad (PCBNEW 8.0.7) date 2025-04-14 16:04:07*
%MOMM*%
%LPD*%
G01*
G04 APERTURE LIST*
G04 Aperture macros list*
%AMOutline5P*
0 Free polygon, 5 corners , with rotation*
0 The origin of the aperture is its center*
0 number of corners: always 5*
0 $1 to $10 corner X, Y*
0 $11 Rotation angle, in degrees counterclockwise*
0 create outline with 5 corners*
4,1,5,$1,$2,$3,$4,$5,$6,$7,$8,$9,$10,$1,$2,$11*%
%AMOutline6P*
0 Free polygon, 6 corners , with rotation*
0 The origin of the aperture is its center*
0 number of corners: always 6*
0 $1 to $12 corner X, Y*
0 $13 Rotation angle, in degrees counterclockwise*
0 create outline with 6 corners*
4,1,6,$1,$2,$3,$4,$5,$6,$7,$8,$9,$10,$11,$12,$1,$2,$13*%
%AMOutline7P*
0 Free polygon, 7 corners , with rotation*
0 The origin of the aperture is its center*
0 number of corners: always 7*
0 $1 to $14 corner X, Y*
0 $15 Rotation angle, in degrees counterclockwise*
0 create outline with 7 corners*
4,1,7,$1,$2,$3,$4,$5,$6,$7,$8,$9,$10,$11,$12,$13,$14,$1,$2,$15*%
%AMOutline8P*
0 Free polygon, 8 corners , with rotation*
0 The origin of the aperture is its center*
0 number of corners: always 8*
0 $1 to $16 corner X, Y*
0 $17 Rotation angle, in degrees counterclockwise*
0 create outline with 8 corners*
4,1,8,$1,$2,$3,$4,$5,$6,$7,$8,$9,$10,$11,$12,$13,$14,$15,$16,$1,$2,$17*%
G04 Aperture macros list end*
%TA.AperFunction,ComponentPad*%
%ADD10O,1.524000X3.048000*%
%TD*%
%TA.AperFunction,ComponentPad*%
%ADD11C,1.950000*%
%TD*%
%TA.AperFunction,ComponentPad*%
%ADD12C,1.508000*%
%TD*%
%TA.AperFunction,ComponentPad*%
%ADD13R,1.508000X1.508000*%
%TD*%
%TA.AperFunction,ComponentPad*%
%ADD14Outline8P,-0.838200X0.347194X-0.347194X0.838200X0.347194X0.838200X0.838200X0.347194X0.838200X-0.347194X0.347194X-0.838200X-0.347194X-0.838200X-0.838200X-0.347194X270.000000*%
%TD*%
%TA.AperFunction,ComponentPad*%
%ADD15Outline8P,-0.838200X0.347194X-0.347194X0.838200X0.347194X0.838200X0.838200X0.347194X0.838200X-0.347194X0.347194X-0.838200X-0.347194X-0.838200X-0.838200X-0.347194X90.000000*%
%TD*%
%TA.AperFunction,Conductor*%
%ADD16C,1.270000*%
%TD*%
G04 APERTURE END LIST*
D10*
%TO.P,REGULATOR,3*%
%TO.N,5V*%
X125006100Y-116433600D03*
%TO.P,REGULATOR,2*%
%TO.N,GND*%
X127546100Y-116433600D03*
%TO.P,REGULATOR,1*%
%TO.N,VIN*%
X130086100Y-116433600D03*
%TD*%
D11*
%TO.P,POWER,2*%
%TO.N,GND*%
X125046100Y-108813600D03*
%TO.P,POWER,1*%
%TO.N,VIN*%
X130046100Y-108813600D03*
%TD*%
D12*
%TO.P,U1,40*%
%TO.N,N/C*%
X147796100Y-80873600D03*
%TO.P,U1,39*%
%TO.N,GND_39*%
X150336100Y-80873600D03*
%TO.P,U1,38*%
%TO.N,N/C*%
X147796100Y-83413600D03*
%TO.P,U1,37*%
X150336100Y-83413600D03*
%TO.P,U1,36*%
X147796100Y-85953600D03*
%TO.P,U1,35*%
X150336100Y-85953600D03*
%TO.P,U1,34*%
%TO.N,GND_34*%
X147796100Y-88493600D03*
%TO.P,U1,33*%
%TO.N,N/C*%
X150336100Y-88493600D03*
%TO.P,U1,32*%
X147796100Y-91033600D03*
%TO.P,U1,31*%
%TO.N,STEP*%
X150336100Y-91033600D03*
%TO.P,U1,30*%
%TO.N,GND_30*%
X147796100Y-93573600D03*
%TO.P,U1,29*%
%TO.N,DIR*%
X150336100Y-93573600D03*
%TO.P,U1,28*%
%TO.N,SCL2*%
X147796100Y-96113600D03*
%TO.P,U1,27*%
%TO.N,SDA2*%
X150336100Y-96113600D03*
%TO.P,U1,26*%
%TO.N,N/C*%
X147796100Y-98653600D03*
%TO.P,U1,25*%
%TO.N,GND_25*%
X150336100Y-98653600D03*
%TO.P,U1,24*%
%TO.N,N/C*%
X147796100Y-101193600D03*
%TO.P,U1,23*%
X150336100Y-101193600D03*
%TO.P,U1,22*%
%TO.N,GPIO25*%
X147796100Y-103733600D03*
%TO.P,U1,21*%
%TO.N,N/C*%
X150336100Y-103733600D03*
%TO.P,U1,20*%
%TO.N,GND_20*%
X147796100Y-106273600D03*
%TO.P,U1,19*%
%TO.N,N/C*%
X150336100Y-106273600D03*
%TO.P,U1,18*%
%TO.N,GPIO24*%
X147796100Y-108813600D03*
%TO.P,U1,17*%
%TO.N,3V3_17*%
X150336100Y-108813600D03*
%TO.P,U1,16*%
%TO.N,GPIO23*%
X147796100Y-111353600D03*
%TO.P,U1,15*%
%TO.N,GPIO22*%
X150336100Y-111353600D03*
%TO.P,U1,14*%
%TO.N,GND_14*%
X147796100Y-113893600D03*
%TO.P,U1,13*%
%TO.N,N/C*%
X150336100Y-113893600D03*
%TO.P,U1,12*%
X147796100Y-116433600D03*
%TO.P,U1,11*%
X150336100Y-116433600D03*
%TO.P,U1,10*%
X147796100Y-118973600D03*
%TO.P,U1,9*%
%TO.N,GND_9*%
X150336100Y-118973600D03*
%TO.P,U1,8*%
%TO.N,N/C*%
X147796100Y-121513600D03*
%TO.P,U1,7*%
X150336100Y-121513600D03*
%TO.P,U1,6*%
%TO.N,GND*%
X147796100Y-124053600D03*
%TO.P,U1,5*%
%TO.N,SCL1*%
X150336100Y-124053600D03*
%TO.P,U1,4*%
%TO.N,5V_4*%
X147796100Y-126593600D03*
%TO.P,U1,3*%
%TO.N,SDA1*%
X150336100Y-126593600D03*
%TO.P,U1,2*%
%TO.N,5V*%
X147796100Y-129133600D03*
D13*
%TO.P,U1,1*%
%TO.N,3V3_1*%
X150336100Y-129133600D03*
%TD*%
D14*
%TO.P,BNO1,1*%
%TO.N,SDA1*%
X133896100Y-130863600D03*
%TO.P,BNO1,2*%
%TO.N,SCL1*%
X133896100Y-128863600D03*
%TO.P,BNO1,3*%
%TO.N,5V*%
X133896100Y-126863600D03*
%TO.P,BNO1,4*%
%TO.N,GND*%
X133896100Y-124863600D03*
%TD*%
D15*
%TO.P,BNO2,1*%
%TO.N,SDA2*%
X132626100Y-94383600D03*
%TO.P,BNO2,2*%
%TO.N,SCL2*%
X132626100Y-96383600D03*
%TO.P,BNO2,3*%
%TO.N,5V*%
X132626100Y-98383600D03*
%TO.P,BNO2,4*%
%TO.N,GND*%
X132626100Y-100383600D03*
%TD*%
D14*
%TO.P,DRIVER,5*%
%TO.N,DIR*%
X137706100Y-82953600D03*
%TO.P,DRIVER,4*%
%TO.N,GND*%
X137706100Y-84953600D03*
%TO.P,DRIVER,3*%
%TO.N,5V*%
X137706100Y-86953600D03*
%TO.P,DRIVER,2*%
X137706100Y-88953600D03*
%TO.P,DRIVER,6*%
%TO.N,STEP*%
X137706100Y-80953600D03*
%TO.P,DRIVER,1*%
%TO.N,5V*%
X137706100Y-90953600D03*
%TD*%
D15*
%TO.P,LS1,1*%
%TO.N,GPIO22*%
X141516100Y-114703600D03*
%TO.P,LS1,2*%
%TO.N,GND*%
X141516100Y-116703600D03*
%TO.P,LS1,3*%
%TO.N,GPIO23*%
X141516100Y-118703600D03*
%TO.P,LS1,4*%
%TO.N,GND*%
X141516100Y-120703600D03*
%TD*%
D14*
%TO.P,LS2,1*%
%TO.N,GPIO24*%
X140246100Y-109273600D03*
%TO.P,LS2,2*%
%TO.N,GND*%
X140246100Y-107273600D03*
%TO.P,LS2,3*%
%TO.N,GPIO25*%
X140246100Y-105273600D03*
%TO.P,LS2,4*%
%TO.N,GND*%
X140246100Y-103273600D03*
%TD*%
D16*
%TO.N,GPIO25*%
X140246100Y-105273600D02*
X147796100Y-103733600D01*
%TO.N,GPIO24*%
X140246100Y-109273600D02*
X147796100Y-108813600D01*
%TO.N,GPIO23*%
X145326100Y-111353600D02*
X147796100Y-111353600D01*
X144056100Y-118973600D02*
X145326100Y-111353600D01*
X141516100Y-118703600D02*
X144056100Y-118973600D01*
%TO.N,GND*%
X140246100Y-135483600D02*
X140246100Y-131673600D01*
X127546100Y-135483600D02*
X140246100Y-135483600D01*
X127546100Y-116433600D02*
X127546100Y-135483600D01*
X137706100Y-124256100D02*
X137706100Y-120427600D01*
X127546100Y-113893600D02*
X127546100Y-116433600D01*
X125046100Y-108813600D02*
X127546100Y-113893600D01*
X140246100Y-84683600D02*
X137706100Y-84953600D01*
X140246100Y-103273600D02*
X140246100Y-84683600D01*
X138976100Y-107543600D02*
X140246100Y-107273600D01*
X139570725Y-102598225D02*
X132626100Y-100383600D01*
X140246100Y-103273600D02*
X139570725Y-102598225D01*
X137706100Y-103503600D02*
X140246100Y-103273600D01*
X137706100Y-107543600D02*
X137706100Y-103503600D01*
X138976100Y-107543600D02*
X140246100Y-107543600D01*
X137706100Y-107543600D02*
X138976100Y-107543600D01*
X137706100Y-116541600D02*
X137706100Y-107543600D01*
X137706100Y-116541600D02*
X141516100Y-116703600D01*
X137706100Y-120427600D02*
X137706100Y-116541600D01*
X137706100Y-120427600D02*
X141516100Y-120703600D01*
X137706100Y-131673600D02*
X137706100Y-124256100D01*
X133896100Y-124863600D02*
X137706100Y-124256100D01*
X142786100Y-124053600D02*
X147796100Y-124053600D01*
X142786100Y-131673600D02*
X142786100Y-124053600D01*
X140246100Y-131673600D02*
X142786100Y-131673600D01*
X137706100Y-131673600D02*
X140246100Y-131673600D01*
%TO.N,5V*%
X122466100Y-116433600D02*
X122466100Y-103733600D01*
X122466100Y-103733600D02*
X130081543Y-103733600D01*
X125006100Y-116433600D02*
X122466100Y-116433600D01*
X125006100Y-139293600D02*
X142856100Y-139293600D01*
X125006100Y-116433600D02*
X125006100Y-139293600D01*
X133896100Y-103733600D02*
X130081543Y-103733600D01*
X133896100Y-113893600D02*
X133896100Y-103733600D01*
X130299615Y-126481297D02*
X133896100Y-113893600D01*
X133896100Y-126863600D02*
X130299615Y-126481297D01*
X133895900Y-88493600D02*
X137706100Y-88953600D01*
X133896100Y-85953600D02*
X137706100Y-86953600D01*
X133895900Y-88493600D02*
X133896100Y-85953600D01*
X133895706Y-90983604D02*
X133895900Y-88493600D01*
X133895706Y-90983604D02*
X137706100Y-90953600D01*
X130086087Y-91013600D02*
X133895706Y-90983604D01*
X130083428Y-98451169D02*
X130086087Y-91013600D01*
X130081543Y-103733600D02*
X130083428Y-98451169D01*
X130083428Y-98451169D02*
X132626100Y-98383600D01*
X142856100Y-139293600D02*
X147796100Y-129133600D01*
%TO.N,VIN*%
X130046100Y-108813600D02*
X130086100Y-116433600D01*
%TD*%
M02*
